HIERARCHY
ROOT Hips
{
	OFFSET -0.001795 -0.223333 0.028219
	CHANNELS 6 Xposition Yposition Zposition Zrotation Yrotation Xrotation
	JOINT LeftUpLeg
	{
		OFFSET 0.069520 -0.091406 -0.006815
		CHANNELS 3 Zrotation Yrotation Xrotation
		JOINT LeftLeg
		{
			OFFSET 0.034277 -0.375199 -0.004496
			CHANNELS 3 Zrotation Yrotation Xrotation
			JOINT LeftFoot
			{
				OFFSET -0.013596 -0.397961 -0.043693
				CHANNELS 3 Zrotation Yrotation Xrotation
				JOINT LeftToe
				{
					OFFSET 0.026358 -0.055791 0.119288
					CHANNELS 3 Zrotation Yrotation Xrotation
					End Site
					{
						OFFSET 0.000000 0.000000 0.000000
					}
				}
			}
		}
	}
	JOINT RightUpLeg
	{
		OFFSET -0.067670 -0.090522 -0.004320
		CHANNELS 3 Zrotation Yrotation Xrotation
		JOINT RightLeg
		{
			OFFSET -0.038290 -0.382569 -0.008850
			CHANNELS 3 Zrotation Yrotation Xrotation
			JOINT RightFoot
			{
				OFFSET 0.015774 -0.398415 -0.042312
				CHANNELS 3 Zrotation Yrotation Xrotation
				JOINT RightToe
				{
					OFFSET -0.025372 -0.048144 0.123348
					CHANNELS 3 Zrotation Yrotation Xrotation
					End Site
					{
						OFFSET 0.000000 0.000000 0.000000
					}
				}
			}
		}
	}
	JOINT Spine
	{
		OFFSET -0.002533 0.108963 -0.026696
		CHANNELS 3 Zrotation Yrotation Xrotation
		JOINT Spine1
		{
			OFFSET 0.005487 0.135180 0.001092
			CHANNELS 3 Zrotation Yrotation Xrotation
			JOINT Spine2
			{
				OFFSET 0.001457 0.052922 0.025425
				CHANNELS 3 Zrotation Yrotation Xrotation
				JOINT Neck
				{
					OFFSET -0.002778 0.213870 -0.042857
					CHANNELS 3 Zrotation Yrotation Xrotation
					JOINT Head
					{
						OFFSET 0.005152 0.064970 0.051349
						CHANNELS 3 Zrotation Yrotation Xrotation
						End Site
						{
							OFFSET 0.000000 0.000000 0.000000
						}
					}
				}
				JOINT LeftShoulder
				{
					OFFSET 0.078845 0.121749 -0.034090
					CHANNELS 3 Zrotation Yrotation Xrotation
					JOINT LeftArm
					{
						OFFSET 0.090977 0.030469 -0.008868
						CHANNELS 3 Zrotation Yrotation Xrotation
						JOINT LeftForeArm
						{
							OFFSET 0.259612 -0.012772 -0.027456
							CHANNELS 3 Zrotation Yrotation Xrotation
							JOINT LeftHand
							{
								OFFSET 0.249234 0.008986 -0.001171
								CHANNELS 3 Zrotation Yrotation Xrotation
								End Site
								{
									OFFSET 0.000000 0.000000 0.000000
								}
							}
						}
					}
				}
				JOINT RightShoulder
				{
					OFFSET -0.081759 0.118833 -0.038615
					CHANNELS 3 Zrotation Yrotation Xrotation
					JOINT RightArm
					{
						OFFSET -0.096012 0.032551 -0.009143
						CHANNELS 3 Zrotation Yrotation Xrotation
						JOINT RightForeArm
						{
							OFFSET -0.253742 -0.013329 -0.021401
							CHANNELS 3 Zrotation Yrotation Xrotation
							JOINT RightHand
							{
								OFFSET -0.255298 0.007772 -0.005559
								CHANNELS 3 Zrotation Yrotation Xrotation
								End Site
								{
									OFFSET 0.000000 0.000000 0.000000
								}
							}
						}
					}
				}
			}
		}
	}
}
MOTION
Frames: 18
Frame Time: 0.050000
0.000000 0.953323 0.000000 0.547738 -4.761199 -7.288474 0.555599 0.270926 2.850134 -3.160072 0.443981 -7.323909 4.482707 12.343681 19.169538 0.000000 0.000000 0.000000 2.023853 -1.268212 11.522601 0.274168 -0.180565 -4.235895 -2.149975 -8.704099 8.806938 0.000000 0.000000 0.000000 3.661619 -0.900025 14.126449 -1.243793 0.742162 -22.442306 0.150343 5.670709 23.502039 3.692025 -0.586476 -21.067009 0.000000 0.000000 0.000000 -34.436375 -15.650818 7.562106 -40.533268 -6.468473 -4.186637 -14.284991 -24.909837 4.100471 0.000000 0.000000 0.000000 33.317449 12.342332 7.550253 41.986822 8.623917 -3.471557 11.459654 26.887704 3.608052 0.000000 0.000000 0.000000
-0.000288 0.952273 -0.000079 0.324887 -4.202046 -7.205720 0.738304 0.286309 3.080003 -3.118865 0.443389 -7.956580 4.188491 11.986710 18.925802 0.000000 0.000000 0.000000 2.415124 -1.349491 11.723285 0.136497 -0.188011 -4.672082 -2.408712 -9.146300 8.754462 0.000000 0.000000 0.000000 4.158676 -0.963754 14.133837 -2.266022 1.044242 -22.469620 0.936113 5.476413 23.565636 3.672798 -0.422388 -22.405965 0.000000 0.000000 0.000000 -34.213814 -15.733209 7.533603 -40.133190 -5.826406 -4.333608 -14.500499 -24.338690 4.038039 0.000000 0.000000 0.000000 32.915176 13.090470 8.137848 42.957714 8.559524 -3.573822 10.676527 26.409521 3.369047 0.000000 0.000000 0.000000
-0.000564 0.951917 -0.000084 0.787826 -3.004726 -8.096484 0.749445 0.314902 3.443618 -4.167674 0.485515 -7.067917 3.577889 11.237782 18.497885 0.000000 0.000000 0.000000 2.027841 -1.481103 13.190537 0.062881 -0.213812 -5.469119 -2.864219 -9.995372 8.898673 0.000000 0.000000 0.000000 3.643331 -0.947379 14.697100 -1.774419 0.955127 -22.683969 1.114698 5.414477 24.180796 3.054714 0.051858 -22.309337 0.000000 0.000000 0.000000 -34.013735 -15.623381 7.161286 -39.791067 -5.451756 -4.399912 -15.746193 -23.972983 4.224688 0.000000 0.000000 0.000000 31.884711 13.834942 8.831870 42.451459 8.284745 -3.747435 10.555797 26.818786 3.384248 0.000000 0.000000 0.000000
-0.000802 0.950856 -0.000063 0.799265 -2.502083 -8.598827 0.396253 0.386574 4.164851 -3.622282 0.451180 -7.435886 3.338989 10.924439 18.198358 0.000000 0.000000 0.000000 2.464498 -1.585288 13.528665 -0.656513 -0.155670 -5.034968 -3.210292 -10.547944 8.522897 0.000000 0.000000 0.000000 3.213573 -0.895912 14.611969 -0.991669 0.752740 -22.088835 0.851093 5.633421 24.261845 3.433956 -0.060760 -22.759861 0.000000 0.000000 0.000000 -33.866674 -15.896585 7.087287 -39.496411 -4.698175 -4.519027 -15.961045 -24.247888 4.303945 0.000000 0.000000 0.000000 32.337128 14.774027 9.764930 41.543591 7.928747 -3.859528 10.396506 26.150347 3.224785 0.000000 0.000000 0.000000
-0.001044 0.950267 -0.000187 0.690724 -1.936213 -9.421505 0.421589 0.407381 4.428946 -3.503699 0.434406 -6.383307 3.136873 10.616133 17.591782 0.000000 0.000000 0.000000 2.545628 -1.642180 13.833464 -0.510365 -0.116547 -3.898820 -3.541721 -11.088201 8.151240 0.000000 0.000000 0.000000 2.798851 -0.871619 14.938869 -0.666479 0.653485 -20.760121 1.231396 4.949946 23.479252 2.413277 0.513304 -22.463522 0.000000 0.000000 0.000000 -33.888615 -15.876644 7.164881 -39.511819 -3.866670 -4.732772 -16.753991 -25.240406 4.671545 0.000000 0.000000 0.000000 31.359989 15.745753 10.072879 41.284717 7.245450 -3.890150 10.634451 26.585173 3.303565 0.000000 0.000000 0.000000
-0.001223 0.949399 -0.000382 0.480251 -1.170455 -9.982161 0.716193 0.427059 4.807012 -3.712430 0.439211 -6.076589 2.776627 10.118543 17.098526 0.000000 0.000000 0.000000 2.942413 -1.772370 14.315075 -0.702856 -0.088544 -3.598955 -3.918391 -11.773800 8.024650 0.000000 0.000000 0.000000 1.893914 -0.778152 14.865711 0.477409 0.361353 -21.314149 1.508681 4.631649 24.993321 1.325482 1.244487 -22.715218 0.000000 0.000000 0.000000 -34.835603 -15.801234 7.165014 -38.597941 -3.432588 -4.853200 -17.195092 -25.586596 4.839750 0.000000 0.000000 0.000000 31.383880 17.185671 11.157765 40.785257 6.979915 -4.058173 10.432946 25.805470 3.112692 0.000000 0.000000 0.000000
-0.001114 0.948489 -0.000379 0.310904 -0.524105 -10.341579 0.882983 0.387656 4.465100 -3.799198 0.437314 -4.865749 2.577824 9.779844 16.396974 0.000000 0.000000 0.000000 3.088996 -1.773271 14.023262 -0.527873 -0.044103 -2.295446 -4.316656 -12.461747 7.588161 0.000000 0.000000 0.000000 1.759883 -0.771575 14.855584 0.864148 0.251571 -20.628504 1.398042 4.164926 24.472846 1.415968 1.085553 -21.638258 0.000000 0.000000 0.000000 -34.989702 -15.539749 6.971377 -38.202374 -2.643824 -4.991492 -17.854698 -25.909238 5.052898 0.000000 0.000000 0.000000 30.685548 17.631074 11.286323 41.167167 6.790800 -4.072929 10.987057 25.706136 3.209526 0.000000 0.000000 0.000000
-0.000855 0.945608 -0.000033 0.021726 0.291505 -11.291132 1.154222 0.377795 4.504471 -3.886889 0.437452 -3.179559 2.413381 9.342275 14.945538 0.000000 0.000000 0.000000 3.047158 -1.759688 13.814487 0.229466 -0.021312 0.109262 -4.881350 -13.402837 6.407794 0.000000 0.000000 0.000000 1.293519 -0.751921 15.263352 1.341288 0.126715 -20.239873 1.518752 3.797564 24.289443 1.042130 1.192889 -19.590628 0.000000 0.000000 0.000000 -35.783805 -15.450884 6.846478 -37.225945 -1.595982 -5.118486 -18.666588 -26.297496 5.313128 0.000000 0.000000 0.000000 30.563679 18.009208 11.546339 40.945151 6.101696 -4.267325 12.466572 25.988743 3.557615 0.000000 0.000000 0.000000
-0.000412 0.942927 0.000826 -0.302687 1.010553 -12.270624 1.282456 0.371829 4.538792 -3.658866 0.409733 -1.355935 2.318114 8.954390 13.484106 0.000000 0.000000 0.000000 3.084275 -1.727149 13.413413 0.897955 -0.009339 2.945889 -5.400124 -14.349185 5.374371 0.000000 0.000000 0.000000 0.945377 -0.737147 15.509269 1.694217 0.022742 -19.652450 1.613533 3.479965 23.582048 1.157512 0.997013 -18.010409 0.000000 0.000000 0.000000 -36.042474 -15.425079 6.711642 -36.880392 -0.780405 -5.214556 -20.032726 -25.753598 5.499672 0.000000 0.000000 0.000000 30.258994 17.953515 11.458946 40.900987 5.385895 -4.435881 14.242926 25.776849 3.901707 0.000000 0.000000 0.000000
0.000081 0.938520 0.001661 -0.825605 1.564598 -13.346776 1.886110 0.401974 5.246100 -3.861264 0.425182 -0.537670 2.301135 8.561866 11.700776 0.000000 0.000000 0.000000 2.946371 -1.645973 12.839173 2.258228 -0.144270 6.278553 -5.849097 -15.175535 3.963717 0.000000 0.000000 0.000000 0.863612 -0.736056 15.486795 2.508288 -0.223059 -19.444734 1.294201 3.349443 23.883538 0.507281 1.388028 -16.614269 0.000000 0.000000 0.000000 -36.745778 -15.166421 6.414890 -36.170364 -0.525487 -5.167882 -21.464761 -24.816820 5.599235 0.000000 0.000000 0.000000 30.449847 18.416358 11.898706 40.868845 4.249215 -4.837627 15.511960 27.290379 4.463263 0.000000 0.000000 0.000000
0.000623 0.934830 0.001843 -1.297656 1.761386 -13.969584 2.630249 0.382170 5.353705 -4.365853 0.478703 0.438354 2.433790 8.414596 10.208940 0.000000 0.000000 0.000000 2.588879 -1.433794 11.471571 3.834429 -0.411416 9.774772 -6.150755 -15.792870 3.413352 0.000000 0.000000 0.000000 0.680067 -0.709432 15.238365 2.979211 -0.411414 -18.639849 1.139091 3.339014 22.949536 0.583036 1.258332 -15.512871 0.000000 0.000000 0.000000 -37.421801 -15.154163 6.279654 -35.749268 0.518625 -5.274889 -22.595141 -24.000303 5.636165 0.000000 0.000000 0.000000 31.047719 18.560622 12.097756 40.350875 2.956904 -5.105844 17.671357 27.630731 5.019173 0.000000 0.000000 0.000000
0.000977 0.925539 0.001309 -1.761018 1.989196 -15.240277 3.320362 0.322471 4.676953 -4.820465 0.547780 3.988157 3.029509 8.454647 6.593026 0.000000 0.000000 0.000000 2.431880 -1.137638 9.284339 5.210879 -0.779017 15.526127 -7.006306 -17.646536 2.516592 0.000000 0.000000 0.000000 0.492754 -0.699619 15.318425 3.787383 -0.697390 -18.368917 0.103475 3.608510 22.647713 0.569268 1.275686 -14.672378 0.000000 0.000000 0.000000 -36.909361 -14.430180 5.434531 -35.931510 0.947105 -5.338226 -24.066629 -22.307469 5.498142 0.000000 0.000000 0.000000 31.403201 18.040010 11.974255 40.930973 1.061033 -5.786820 19.917785 28.478696 5.782642 0.000000 0.000000 0.000000
0.001164 0.915284 0.000177 -1.772851 1.836351 -16.297962 3.058128 0.253236 3.269052 -4.439886 0.495834 8.508149 3.959870 9.082190 2.856611 0.000000 0.000000 0.000000 2.394203 -0.818609 6.850894 5.796680 -1.037033 20.886529 -8.384848 -20.663084 2.519263 0.000000 0.000000 0.000000 -0.491355 -0.614492 15.542456 4.276462 -0.926113 -17.748103 -0.135703 4.576442 21.350619 1.055081 0.833035 -12.569094 0.000000 0.000000 0.000000 -36.993029 -14.573059 5.030199 -35.558335 2.618374 -5.516813 -25.192993 -20.153652 5.115170 0.000000 0.000000 0.000000 32.916038 16.755303 11.614031 40.619811 -0.989557 -6.384501 22.402110 28.424045 6.393972 0.000000 0.000000 0.000000
0.001206 0.897579 -0.001400 -1.918924 2.992472 -17.859869 3.005564 0.082837 0.523228 -4.562253 0.439737 16.146683 4.861052 9.047678 -3.055232 0.000000 0.000000 0.000000 1.665913 -0.292587 2.716773 7.911207 -2.228099 29.437902 -11.194819 -26.158894 5.507553 0.000000 0.000000 0.000000 -1.853430 -0.552915 16.490471 5.229453 -1.172933 -18.589672 -0.799968 4.225915 22.314272 1.342113 0.582500 -11.966049 0.000000 0.000000 0.000000 -37.853138 -13.309249 3.933465 -33.347715 4.125891 -5.552121 -27.148789 -19.827106 5.359304 0.000000 0.000000 0.000000 33.976314 15.322018 10.927000 39.416199 -3.503333 -7.101671 25.572744 28.560223 7.231687 0.000000 0.000000 0.000000
0.001803 0.876894 -0.003550 -1.516996 3.362741 -20.410008 2.541673 -0.101149 -2.290312 -5.126351 0.451576 25.978423 6.008970 10.060578 -7.790678 0.000000 0.000000 0.000000 0.348695 0.199445 -1.895343 9.396600 -3.704911 40.639932 -13.904006 -29.432517 12.879744 0.000000 0.000000 0.000000 -3.705582 -0.444334 17.940505 5.663607 -1.489839 -17.199708 -1.679352 5.262750 19.991794 1.936288 -0.053360 -9.468126 0.000000 0.000000 0.000000 -37.177920 -12.314370 2.443240 -31.171995 6.512763 -5.439720 -30.144927 -18.930116 5.546403 0.000000 0.000000 0.000000 36.127567 13.647965 10.378825 38.300093 -5.545428 -7.501823 27.510441 27.088639 7.257456 0.000000 0.000000 0.000000
0.003412 0.847411 -0.005627 -1.329926 3.205349 -23.570081 2.678241 -0.335650 -6.014346 -6.619798 0.887050 38.431646 7.227980 11.966701 -11.672804 0.000000 0.000000 0.000000 -0.151202 0.708529 -7.318971 9.862468 -5.163559 54.612068 -15.334797 -29.671954 21.880438 0.000000 0.000000 0.000000 -5.135342 -0.359213 17.634705 5.643001 -1.658447 -16.118205 -0.804357 6.242350 20.864538 0.055441 1.048742 -4.503558 0.000000 0.000000 0.000000 -38.538047 -11.088896 1.096948 -25.919373 6.926891 -4.482386 -32.291404 -16.892279 5.189648 0.000000 0.000000 0.000000 37.054414 11.365833 9.128520 35.262749 -8.743087 -7.923400 31.103317 27.179607 8.132192 0.000000 0.000000 0.000000
0.006731 0.813175 -0.008636 -1.760234 2.485203 -27.086253 3.327418 -0.473610 -9.302355 -7.912539 1.598106 50.334282 8.225735 14.215575 -14.083158 0.000000 0.000000 0.000000 -2.224195 1.020649 -14.113435 12.698567 -8.330692 66.665948 -15.776621 -28.492802 32.628778 0.000000 0.000000 0.000000 -6.251775 -0.327341 18.790235 7.983357 -2.626517 -18.048183 -2.398278 9.075612 22.536143 0.927958 -0.916810 3.912527 0.000000 0.000000 0.000000 -38.910301 -11.603716 0.244951 -18.368499 9.472698 -3.276432 -38.173994 -18.029979 6.384560 0.000000 0.000000 0.000000 40.606743 8.262632 8.250976 28.055589 -12.610375 -7.419331 34.306578 25.990479 8.160644 0.000000 0.000000 0.000000
0.011109 0.762476 -0.013727 -0.992174 0.623608 -30.760990 5.034003 -0.621591 -17.111215 -13.412366 6.800824 65.142455 12.838153 25.157022 -1.526954 0.000000 0.000000 0.000000 -4.846382 1.074194 -22.112050 18.151374 -12.944421 73.893998 -24.287349 -35.411489 41.179268 0.000000 0.000000 0.000000 -6.382356 -0.363586 18.410574 8.784054 -4.199364 -11.573881 -4.227337 10.276566 14.313781 -1.972188 -0.102095 13.454293 0.000000 0.000000 0.000000 -36.759015 -9.730524 -2.134030 -14.881953 10.765659 -2.268653 -41.574159 -18.260510 6.910210 0.000000 0.000000 0.000000 38.068617 8.089492 7.342055 26.651733 -17.976357 -7.338736 36.910608 25.294913 8.482890 0.000000 0.000000 0.000000
